<?xml version="1.0" standalone="no"?>
<!DOCTYPE svg PUBLIC "-//W3C//DTD SVG 20010904//EN"
 "http://www.w3.org/TR/2001/REC-SVG-20010904/DTD/svg10.dtd">
<svg version="1.0" xmlns="http://www.w3.org/2000/svg"
 width="325.000000pt" height="325.000000pt" viewBox="0 0 325.000000 325.000000"
 preserveAspectRatio="xMidYMid meet">
<metadata>
Created by potrace 1.14, written by Peter Selinger 2001-2017
</metadata>
<g transform="translate(0.000000,325.000000) scale(0.100000,-0.100000)"
fill="#000000" stroke="none">
<path d="M1430 3120 c-466 -65 -866 -313 -1125 -699 -47 -70 -85 -136 -85
-147 0 -16 -2 -17 -11 -4 -8 12 -10 12 -8 -5 2 -11 -5 -37 -14 -59 -9 -21 -17
-44 -17 -50 0 -6 -5 -4 -11 4 -9 13 -10 13 -6 -1 3 -9 -3 -43 -13 -75 -10 -33
-19 -52 -20 -44 0 13 -1 13 -10 0 -5 -8 -5 -17 0 -20 5 -3 3 -24 -6 -49 -8
-24 -15 -60 -16 -80 -1 -44 -8 -58 -19 -40 -13 21 -12 -7 1 -32 6 -10 7 -19 3
-19 -4 0 -7 -71 -6 -157 1 -94 -2 -146 -7 -128 -6 23 -8 25 -9 9 0 -12 6 -35
14 -50 19 -37 19 -64 -1 -64 -8 0 -12 -5 -9 -10 4 -6 10 -8 14 -5 5 2 13 -17
19 -43 6 -26 13 -58 17 -72 5 -17 4 -21 -3 -11 -7 10 -9 6 -9 -15 0 -16 2 -23
4 -16 8 23 21 12 29 -25 9 -45 8 -41 22 -76 7 -16 10 -33 6 -38 -3 -5 -2 -9 3
-9 12 0 36 -58 29 -69 -4 -5 0 -13 7 -18 8 -4 20 -21 29 -38 8 -16 24 -46 36
-67 11 -20 18 -39 14 -44 -4 -4 -2 -4 5 0 7 4 14 -3 19 -16 3 -12 10 -26 15
-32 5 -6 19 -22 30 -36 12 -14 35 -44 52 -68 17 -23 35 -42 40 -42 5 0 7 -7 3
-15 -3 -8 -1 -14 3 -12 5 1 24 -14 43 -33 281 -287 657 -457 1078 -485 175
-12 449 26 615 86 33 12 68 21 78 21 9 -1 17 3 17 9 0 5 5 9 11 9 6 0 39 14
72 31 45 22 75 31 114 31 29 0 53 4 53 8 0 11 -50 19 -56 9 -3 -5 -13 -9 -22
-9 -14 1 -14 2 3 12 11 7 36 11 55 10 27 -1 30 1 15 7 -18 7 -17 9 10 24 17 9
26 16 21 17 -5 0 16 18 48 40 32 22 62 37 68 34 7 -4 8 -2 4 4 -7 12 61 79 76
74 4 -1 7 2 6 6 -2 4 18 30 43 57 119 128 193 234 266 386 224 458 198 974
-70 1419 -74 123 -325 398 -378 415 -11 4 -17 10 -14 15 3 5 -5 12 -19 16 -35
8 -62 39 -44 51 7 4 20 17 28 28 14 19 14 19 -5 5 -11 -8 -26 -20 -33 -27 -15
-15 -65 4 -55 20 4 6 0 8 -9 5 -11 -5 -14 0 -10 18 3 19 0 24 -17 24 -12 0
-24 6 -27 14 -3 9 -12 12 -21 9 -11 -4 -14 -2 -9 5 5 8 2 10 -8 6 -14 -5 -14
-8 -1 -21 8 -8 21 -11 27 -7 10 5 10 4 2 -5 -13 -14 -48 -1 -72 28 -8 9 -11
10 -7 4 6 -13 -22 -6 -62 16 -18 10 -131 47 -169 56 -197 45 -214 47 -399 50
-104 2 -219 0 -255 -5z m513 -50 c624 -122 1098 -593 1213 -1205 23 -122 23
-358 0 -484 -84 -463 -386 -859 -811 -1066 -146 -71 -236 -103 -387 -137 -91
-20 -129 -23 -323 -23 -205 1 -228 3 -340 29 -303 71 -542 203 -761 421 -285
282 -427 623 -427 1020 0 762 575 1373 1383 1469 87 10 349 -3 453 -24z m492
-120 c3 -5 -1 -10 -9 -10 -8 0 -18 5 -21 10 -3 6 1 10 9 10 8 0 18 -4 21 -10z"/>
<path d="M1527 2962 c-21 -23 -22 -76 -1 -96 18 -19 85 -21 102 -4 18 18 14
38 -8 38 -11 0 -20 -4 -20 -10 0 -5 -9 -10 -19 -10 -22 0 -35 28 -25 54 7 17
44 23 44 6 0 -5 9 -10 20 -10 22 0 26 20 8 38 -19 19 -82 15 -101 -6z"/>
<path d="M1676 2958 c-3 -13 -6 -42 -6 -65 0 -36 3 -43 19 -43 13 0 21 8 23
23 2 14 11 23 26 25 18 3 22 -1 22 -23 0 -22 24 -45 34 -34 2 2 7 32 11 67 7
62 7 62 -19 62 -14 0 -25 -3 -25 -7 4 -23 -3 -33 -21 -33 -15 0 -20 7 -20 25
0 33 -35 35 -44 3z"/>
<path d="M1391 2963 c-31 -4 -33 -6 -27 -35 3 -17 6 -40 6 -52 0 -41 14 -49
69 -41 36 5 51 11 51 22 0 12 -7 14 -35 9 -28 -6 -35 -4 -35 9 0 9 9 15 25 15
16 0 25 6 25 16 0 12 -7 14 -31 9 -24 -5 -30 -4 -27 6 3 8 17 15 31 17 15 2
27 10 27 18 0 14 -11 15 -79 7z"/>
<path d="M1840 2913 c-7 -30 -9 -61 -6 -69 10 -25 33 -15 41 19 l7 32 17 -37
c11 -27 22 -38 37 -38 18 0 23 9 33 56 6 31 8 60 5 65 -12 20 -34 7 -42 -23
l-9 -33 -15 36 c-9 20 -25 39 -36 41 -18 5 -22 -1 -32 -49z"/>
<path d="M1245 2926 c-22 -6 -39 -15 -37 -19 1 -4 2 -11 2 -16 0 -5 9 -7 20
-4 16 4 22 -2 32 -41 8 -32 16 -45 26 -41 7 3 17 5 22 5 5 0 4 15 -1 32 -13
47 -11 68 6 68 8 0 15 7 15 15 0 18 -29 18 -85 1z"/>
<path d="M2005 2878 c-19 -66 -19 -75 4 -81 16 -4 21 5 35 56 11 47 12 63 3
69 -21 14 -26 9 -42 -44z"/>
<path d="M1138 2875 c-12 -28 -19 -30 -35 -14 -6 6 -20 8 -31 5 -18 -6 -15
-12 30 -57 53 -53 86 -60 68 -15 -5 15 -5 37 1 58 12 44 12 48 -6 48 -9 0 -21
-11 -27 -25z"/>
<path d="M2087 2872 c-23 -26 -21 -75 3 -97 23 -21 75 -24 92 -7 16 16 3 26
-35 27 -27 0 -32 4 -32 24 0 13 8 29 18 35 16 9 22 7 34 -11 18 -26 43 -31 43
-8 0 47 -90 74 -123 37z"/>
<path d="M955 2810 c-3 -5 7 -34 22 -64 l28 -55 43 21 c23 12 42 28 42 36 0 8
-6 12 -12 9 -7 -3 -21 -8 -30 -12 -12 -5 -22 4 -40 34 -22 40 -41 51 -53 31z"/>
<path d="M2296 2779 c-33 -26 -34 -68 -3 -97 24 -23 62 -28 86 -13 18 11 -4
26 -39 26 -20 0 -25 5 -25 24 0 13 8 29 17 34 13 9 22 5 45 -18 l28 -30 3 25
c3 17 -4 31 -25 47 -35 28 -53 29 -87 2z"/>
<path d="M865 2760 c-48 -19 -63 -77 -29 -110 31 -30 70 -30 102 0 29 27 28
65 -3 95 -25 26 -37 29 -70 15z m47 -55 c9 -20 9 -28 -1 -38 -17 -17 -45 4
-49 37 -3 21 1 26 18 26 12 0 25 -10 32 -25z"/>
<path d="M2439 2700 c-9 -5 -22 -23 -29 -40 -11 -28 -11 -34 7 -58 27 -37 77
-41 109 -11 27 25 29 37 13 72 -17 38 -67 56 -100 37z m68 -46 c3 -9 -3 -25
-16 -37 -18 -19 -23 -20 -35 -7 -10 11 -11 22 -5 38 10 26 47 30 56 6z"/>
<path d="M750 2672 c-8 -3 -29 -18 -47 -33 l-32 -28 43 -48 c38 -42 45 -46 60
-34 12 11 14 17 5 28 -9 10 -8 17 4 31 37 41 14 100 -33 84z m14 -41 c3 -5 -1
-14 -8 -20 -16 -13 -32 2 -21 19 8 12 22 13 29 1z"/>
<path d="M2552 2571 l-41 -48 22 -20 c43 -37 56 -45 67 -38 8 5 4 15 -11 31
-24 26 -25 24 29 82 10 11 10 17 1 28 -17 21 -22 18 -67 -35z"/>
<path d="M944 2467 c-91 -58 -99 -66 -97 -93 1 -16 7 -39 13 -51 44 -97 50
-130 50 -266 0 -133 -4 -156 -61 -331 -40 -123 -21 -199 84 -338 79 -105 139
-138 347 -194 30 -8 78 -23 105 -33 28 -11 94 -36 148 -56 l98 -37 57 24 c31
14 77 31 102 37 25 7 81 25 125 41 44 16 102 36 128 44 71 24 203 96 251 137
23 20 55 61 71 90 29 53 30 57 29 189 0 90 -6 155 -17 195 -63 235 -61 365 7
474 54 85 60 72 -68 156 -63 41 -121 75 -129 75 -9 0 -42 -14 -75 -31 -76 -39
-152 -59 -222 -59 -70 0 -119 13 -196 53 l-62 31 -93 -41 c-124 -55 -181 -66
-271 -52 -67 10 -100 25 -177 76 -19 13 -37 23 -41 23 -4 0 -51 -28 -106 -63z
m1358 -43 c43 -27 78 -54 78 -59 0 -6 -11 -27 -24 -46 -46 -67 -69 -160 -63
-252 3 -45 10 -104 17 -132 6 -27 12 -57 13 -65 2 -13 -22 -15 -157 -15 l-160
0 -7 28 c-4 15 -10 62 -13 106 -3 43 -10 91 -16 105 -16 42 -12 121 7 155 17
29 17 31 -1 44 -14 10 -17 21 -12 40 3 15 2 27 -3 27 -11 0 -21 -25 -21 -51 0
-14 -7 -19 -30 -19 -35 0 -45 -16 -59 -100 -6 -30 -16 -80 -24 -110 -8 -30
-20 -82 -27 -115 -24 -116 -19 -110 -88 -113 l-62 -3 -2 223 c-1 123 -3 257
-4 300 -1 42 2 81 5 87 4 6 31 1 76 -16 59 -22 87 -26 180 -27 109 -1 111 -1
195 40 73 36 88 40 105 29 11 -6 55 -34 97 -61z m-1209 42 c67 -51 125 -69
227 -70 88 0 102 2 186 37 50 20 94 37 98 37 3 0 5 -138 4 -307 l-3 -308 -335
-7 c-184 -3 -339 -3 -343 2 -5 4 -2 46 7 92 28 147 15 250 -46 387 -16 36 -17
46 -6 57 17 16 160 103 171 104 5 0 23 -11 40 -24z m835 -219 c2 -10 -3 -17
-12 -17 -18 0 -29 16 -21 31 9 14 29 6 33 -14z m-4 -70 c7 -11 7 -20 0 -27
-15 -15 -44 -2 -44 19 0 35 25 39 44 8z m13 -69 c-3 -8 -6 -5 -6 6 -1 11 2 17
5 13 3 -3 4 -12 1 -19z m-29 -10 c19 -19 14 -28 -18 -28 -18 0 -30 5 -30 13 0
28 27 36 48 15z m52 -123 c0 -8 -7 -15 -15 -15 -8 0 -15 7 -15 15 0 8 7 15 15
15 8 0 15 -7 15 -15z m-47 -29 c4 -9 -2 -17 -13 -21 -24 -8 -40 1 -40 21 0 19
46 19 53 0z m52 -26 c3 -5 4 -14 0 -20 -8 -13 -35 -1 -35 16 0 16 26 19 35 4z
m-133 -15 c0 -5 -5 -11 -11 -13 -6 -2 -11 4 -11 13 0 9 5 15 11 13 6 -2 11 -8
11 -13z m78 -30 c0 -8 -9 -15 -20 -15 -20 0 -26 11 -13 23 12 13 33 7 33 -8z
m429 -69 c4 -3 14 -52 21 -109 14 -114 6 -174 -32 -250 -23 -46 -132 -157
-154 -157 -3 0 -18 -8 -32 -18 -15 -10 -54 -26 -87 -37 -33 -10 -64 -22 -70
-25 -5 -4 -37 -12 -70 -19 -88 -19 -165 -40 -208 -56 -20 -8 -42 -15 -47 -15
-6 0 -10 126 -10 345 l0 345 243 3 c268 3 433 0 446 -7z m-929 -3 c-1 -18 -20
-38 -37 -38 -12 0 -18 -8 -18 -21 -1 -12 -7 -29 -14 -38 -12 -14 -11 -19 4
-36 17 -19 17 -20 0 -26 -10 -4 -25 -2 -34 4 -48 35 -180 54 -209 30 -9 -8
-20 -8 -37 0 -46 21 -29 -15 28 -58 28 -23 62 -50 73 -60 12 -11 50 -41 84
-68 34 -26 78 -59 98 -74 19 -16 42 -28 51 -27 10 0 8 3 -6 9 -24 10 -30 25
-13 35 15 9 12 96 -5 129 -19 36 -19 46 0 46 8 0 15 -7 15 -15 0 -20 27 -30
43 -17 8 7 18 7 27 2 23 -15 50 -12 50 5 0 9 9 15 25 15 20 0 25 5 25 25 0 13
8 28 18 34 14 8 15 13 5 29 -6 11 -9 29 -6 40 4 17 -1 23 -23 28 -30 7 -44 20
-44 42 0 8 17 12 50 12 l50 0 0 -345 c0 -190 -3 -345 -6 -345 -3 0 -58 17
-123 39 -64 21 -156 50 -206 65 -49 15 -116 37 -147 48 -55 19 -130 75 -171
126 -10 12 -24 28 -31 35 -6 6 -21 30 -31 52 -30 61 -24 260 9 313 8 14 506
18 506 5z m60 -8 c0 -17 -2 -18 -24 -9 -23 9 -20 24 4 24 11 0 20 -7 20 -15z
m28 -77 c26 -26 3 -77 -35 -78 -15 0 -53 35 -53 49 0 33 64 53 88 29z m-252
-163 c17 -16 14 -18 -10 -9 -9 3 -16 10 -16 15 0 13 9 11 26 -6z"/>
<path d="M2005 2350 c3 -5 11 -10 16 -10 6 0 7 5 4 10 -3 6 -11 10 -16 10 -6
0 -7 -4 -4 -10z"/>
<path d="M2193 2347 c-42 -12 -43 -28 -3 -23 34 4 44 10 39 23 -2 5 -18 5 -36
0z"/>
<path d="M2047 2299 c6 -22 23 -25 41 -7 19 19 14 25 -17 26 -24 0 -28 -3 -24
-19z"/>
<path d="M1450 2240 c16 -30 6 -260 -12 -271 -7 -5 -58 -10 -113 -11 l-100 -1
106 -6 c67 -4 112 -11 122 -20 16 -12 17 0 17 158 0 147 -2 171 -15 171 -13 0
-14 -4 -5 -20z"/>
<path d="M1046 2225 c-3 -8 -1 -15 4 -15 6 0 10 7 10 15 0 8 -2 15 -4 15 -2 0
-6 -7 -10 -15z"/>
<path d="M1049 2093 c-1 -48 0 -95 1 -103 2 -16 19 -30 35 -30 6 1 2 5 -7 11
-16 9 -16 12 2 42 21 36 17 77 -7 77 -12 0 -14 9 -10 40 3 22 1 43 -4 46 -5 3
-10 -33 -10 -83z"/>
<path d="M1112 2129 c-37 -14 -25 -28 26 -28 48 0 102 15 102 29 0 10 -100 9
-128 -1z"/>
<path d="M2025 1670 c-3 -5 1 -10 10 -10 9 0 13 5 10 10 -3 6 -8 10 -10 10 -2
0 -7 -4 -10 -10z"/>
<path d="M2160 1549 c-141 -119 -133 -109 -114 -147 l16 -32 47 45 c27 25 58
53 69 61 12 8 22 24 22 35 0 11 18 39 40 63 34 37 42 57 21 56 -3 -1 -49 -37
-101 -81z m20 -18 c0 -5 -7 -14 -15 -21 -16 -14 -18 -10 -9 14 6 17 24 22 24
7z m-62 -71 c-13 -20 -38 -35 -38 -23 0 10 32 43 42 43 4 0 3 -9 -4 -20z"/>
<path d="M1810 1616 c3 -3 39 -6 79 -7 51 -1 74 -6 78 -16 4 -10 9 -11 19 -2
8 6 14 14 14 18 0 3 -44 8 -97 9 -54 2 -96 1 -93 -2z"/>
<path d="M2011 1579 c-12 -28 -12 -33 1 -40 10 -5 14 -19 12 -36 -2 -17 2 -10
11 17 15 43 13 90 -3 90 -4 0 -13 -14 -21 -31z"/>
<path d="M1730 1573 c0 -13 5 -23 10 -23 13 0 13 11 0 30 -8 12 -10 11 -10 -7z"/>
<path d="M1945 1550 c-3 -5 -1 -10 4 -10 6 0 11 5 11 10 0 6 -2 10 -4 10 -3 0
-8 -4 -11 -10z"/>
<path d="M1994 1408 c1 -25 -4 -35 -21 -43 -27 -12 -30 -33 -6 -42 11 -4 25 4
45 27 33 40 34 51 10 73 -26 24 -30 21 -28 -15z"/>
<path d="M940 1762 c0 -10 33 -42 43 -42 3 0 4 7 1 15 -7 17 31 22 41 5 3 -5
11 -10 17 -10 6 0 3 9 -7 20 -18 20 -95 29 -95 12z"/>
<path d="M906 1694 c-3 -9 -1 -24 4 -34 12 -22 50 -46 50 -31 0 5 -7 11 -15
15 -25 9 -17 34 12 38 14 2 29 10 31 18 4 12 3 13 -10 2 -11 -9 -23 -10 -41
-3 -20 8 -27 6 -31 -5z"/>
<path d="M997 1624 c-3 -3 -3 -12 0 -20 3 -8 1 -14 -4 -14 -11 0 -32 -77 -29
-105 8 -66 74 -147 140 -172 39 -14 133 -16 141 -3 4 6 11 7 17 4 6 -4 17 1
23 10 7 9 26 18 41 19 27 2 29 -1 34 -37 4 -33 11 -42 41 -58 20 -10 44 -16
53 -12 15 6 16 8 1 24 -9 10 -20 31 -26 46 -8 26 -8 24 -5 -13 3 -30 0 -43 -8
-43 -22 0 -44 33 -48 70 -3 30 -15 44 -94 110 -230 189 -260 210 -277 194z
m138 -126 c7 -7 27 -24 44 -37 41 -31 39 -41 -8 -41 -44 0 -71 26 -71 67 0 25
14 30 35 11z"/>
<path d="M1488 1371 c9 -5 11 -17 6 -36 -5 -21 -4 -27 7 -23 29 10 17 68 -15
68 -7 0 -6 -3 2 -9z"/>
<path d="M2658 2482 c-26 -20 -47 -40 -48 -43 0 -3 15 -23 34 -45 37 -43 59
-41 31 2 -17 27 -17 27 21 60 35 29 37 34 24 48 -13 13 -20 10 -62 -22z"/>
<path d="M527 2463 c-25 -31 -34 -50 -28 -56 7 -7 15 -6 25 2 13 11 21 9 47
-13 35 -30 42 -31 58 -12 9 11 4 20 -26 44 -31 25 -35 32 -25 45 10 11 10 17
-1 25 -10 8 -22 0 -50 -35z"/>
<path d="M647 2455 c-4 -8 -2 -17 4 -21 12 -7 41 15 33 27 -8 14 -31 11 -37
-6z"/>
<path d="M2744 2375 c-27 -19 -48 -38 -47 -43 5 -21 49 -82 60 -82 17 0 16 11
-3 38 -8 12 -12 27 -8 33 4 7 13 1 23 -14 11 -17 21 -23 30 -18 11 7 10 14 -4
35 -14 21 -15 26 -3 26 8 0 21 -11 28 -25 9 -16 17 -22 23 -16 6 6 0 26 -17
55 -15 25 -28 46 -30 46 -1 0 -25 -16 -52 -35z"/>
<path d="M453 2364 c-3 -9 6 -27 23 -46 l29 -31 -25 6 c-14 3 -35 8 -46 12
-15 5 -23 2 -28 -11 -8 -22 -10 -21 62 -38 59 -14 63 -13 73 5 8 16 3 29 -26
69 -39 53 -52 60 -62 34z"/>
<path d="M2830 2263 c-50 -18 -66 -75 -30 -108 11 -10 20 -25 20 -33 0 -10 6
-12 18 -7 9 4 25 9 34 12 16 5 16 7 1 36 -14 28 -16 29 -28 13 -13 -17 -14
-17 -24 2 -8 15 -7 23 4 32 22 18 60 8 61 -16 3 -50 34 -55 34 -5 0 48 -50 88
-90 74z"/>
<path d="M379 2216 c-73 -36 -33 -152 46 -132 35 9 63 66 48 99 -15 32 -63 49
-94 33z m56 -66 c0 -29 -22 -37 -49 -17 -28 20 -14 49 21 45 22 -2 28 -8 28
-28z"/>
<path d="M2895 2098 c-27 -11 -51 -20 -52 -22 -7 -7 33 -106 41 -103 12 5 13
21 2 55 -10 31 12 28 24 -4 13 -34 33 -20 25 17 -9 38 10 38 24 -1 13 -38 36
-40 28 -2 -8 41 -26 82 -34 81 -5 -1 -30 -10 -58 -21z"/>
<path d="M297 2042 c-21 -23 -22 -76 -1 -96 38 -39 99 -27 110 22 3 15 9 37
14 49 8 18 4 23 -22 32 -37 13 -44 9 -51 -25 -4 -21 -1 -25 14 -21 13 4 19 0
19 -13 0 -22 -18 -30 -47 -19 -26 10 -29 26 -8 53 8 11 15 23 15 28 0 15 -27
8 -43 -10z"/>
<path d="M1098 972 c-15 -3 -18 -15 -18 -68 l0 -64 49 0 c59 0 98 29 74 54 -5
4 -8 22 -8 39 0 30 -3 32 -40 37 -22 3 -48 4 -57 2z m62 -43 c0 -11 -27 -12
-34 0 -3 4 -3 11 0 14 8 8 34 -3 34 -14z m3 -44 c1 -5 -6 -11 -15 -13 -11 -2
-18 3 -18 13 0 17 30 18 33 0z"/>
<path d="M1365 971 c-12 -12 -3 -31 15 -31 17 0 20 -7 20 -50 0 -43 3 -50 20
-50 17 0 20 7 20 50 0 44 3 50 21 50 14 0 19 5 17 16 -2 13 -16 17 -56 18 -29
1 -55 0 -57 -3z"/>
<path d="M1768 973 c-15 -4 -18 -16 -18 -69 0 -57 2 -64 20 -64 16 0 20 7 20
37 l0 38 25 -38 c15 -21 34 -37 45 -37 18 0 20 7 20 65 0 58 -2 65 -20 65 -16
0 -20 -7 -21 -32 0 -31 -1 -32 -14 -13 -30 43 -41 51 -57 48z"/>
<path d="M1922 972 c-8 -2 -12 -27 -12 -68 l0 -64 43 0 c57 0 87 22 87 63 0
18 -4 38 -9 46 -9 14 -87 31 -109 23z m75 -48 c8 -20 -8 -48 -31 -52 -12 -3
-16 4 -16 32 0 30 4 36 20 36 11 0 23 -7 27 -16z"/>
<path d="M2107 967 c-13 -11 -47 -97 -47 -119 0 -4 9 -8 20 -8 11 0 20 5 20
10 0 6 11 10 25 10 14 0 25 -4 25 -10 0 -5 9 -10 20 -10 25 0 25 6 0 74 -22
58 -39 72 -63 53z m21 -76 c-15 -5 -19 4 -11 24 6 18 7 18 13 -1 4 -10 3 -21
-2 -23z"/>
<path d="M1263 953 c-3 -10 -14 -39 -24 -65 -18 -47 -18 -48 1 -48 10 0 22 5
25 10 3 6 17 10 31 10 13 0 24 -4 24 -10 0 -5 9 -10 20 -10 25 0 25 5 -1 74
-18 46 -26 56 -46 56 -13 0 -26 -7 -30 -17z m33 -65 c-15 -10 -19 -3 -10 24 7
22 7 22 14 3 4 -11 3 -23 -4 -27z"/>
<path d="M1510 905 c0 -58 2 -65 20 -65 15 0 20 7 20 25 0 20 5 25 25 25 20 0
25 -5 25 -25 0 -18 5 -25 20 -25 18 0 20 7 20 65 0 58 -2 65 -20 65 -13 0 -20
-7 -20 -20 0 -15 -7 -20 -25 -20 -18 0 -25 5 -25 20 0 13 -7 20 -20 20 -18 0
-20 -7 -20 -65z"/>
<path d="M1670 905 c0 -63 1 -65 25 -65 24 0 25 2 25 65 0 63 -1 65 -25 65
-24 0 -25 -2 -25 -65z"/>
<path d="M2410 3045 c14 -8 30 -14 35 -14 6 0 -1 6 -15 14 -14 8 -29 14 -35
14 -5 0 1 -6 15 -14z"/>
<path d="M2388 3033 c6 -2 9 -10 6 -15 -4 -7 -2 -8 5 -4 13 9 5 26 -12 25 -9
0 -8 -2 1 -6z"/>
<path d="M2455 3010 c3 -5 -2 -10 -12 -10 -16 0 -16 -2 3 -18 12 -9 24 -29 28
-44 7 -33 19 -35 49 -10 32 25 31 38 -5 64 -34 24 -74 35 -63 18z m57 -31 c21
-13 25 -18 11 -14 -12 3 -24 1 -28 -4 -3 -6 0 -8 8 -5 8 3 18 1 22 -5 4 -7 -3
-11 -17 -11 -19 0 -20 -2 -8 -11 13 -9 13 -10 0 -6 -8 2 -15 14 -15 27 0 13
-6 25 -12 28 -15 4 -17 22 -3 22 5 0 24 -9 42 -21z"/>
<path d="M131 2324 c0 -11 3 -14 6 -6 3 7 2 16 -1 19 -3 4 -6 -2 -5 -13z"/>
<path d="M96 2253 c-6 -14 -5 -15 5 -6 7 7 10 15 7 18 -3 3 -9 -2 -12 -12z"/>
<path d="M66 2127 c3 -10 9 -15 12 -12 3 3 0 11 -7 18 -10 9 -11 8 -5 -6z"/>
<path d="M96 2115 c-3 -9 -6 -24 -5 -33 0 -9 5 -4 10 12 9 32 6 48 -5 21z"/>
<path d="M35 2090 c-3 -16 -3 -36 2 -44 5 -9 8 1 9 30 1 51 -2 55 -11 14z"/>
<path d="M61 2084 c0 -11 3 -14 6 -6 3 7 2 16 -1 19 -3 4 -6 -2 -5 -13z"/>
<path d="M64 2045 c-3 -8 -4 -20 -2 -27 3 -7 7 -1 10 15 6 29 1 36 -8 12z"/>
<path d="M1 1950 l-1 -45 15 29 c17 32 19 50 6 42 -5 -4 -12 0 -14 6 -3 7 -6
-7 -6 -32z"/>
<path d="M16 1869 c3 -15 11 -44 18 -64 13 -37 13 -37 18 -10 7 35 -11 103
-22 85 -6 -10 -9 -10 -13 1 -4 8 -4 2 -1 -12z m28 -34 c5 -22 4 -26 -4 -15 -5
8 -10 24 -10 34 0 26 6 18 14 -19z"/>
<path d="M11 1798 c0 -14 -4 -35 -7 -45 -5 -15 -4 -16 5 -3 9 12 10 6 4 -25
-11 -57 -8 -234 3 -245 7 -7 8 14 2 62 -5 40 -7 81 -5 93 2 11 5 2 6 -20 1
-22 6 -49 11 -60 5 -13 7 2 4 40 -3 46 -2 55 6 40 9 -18 10 -17 5 5 -2 14 -5
36 -6 50 -1 21 -3 19 -10 -10 -6 -28 -7 -24 -5 25 2 33 0 74 -4 90 -8 30 -8
30 -9 3z"/>
<path d="M52 1715 c0 -16 2 -22 5 -12 2 9 2 23 0 30 -3 6 -5 -1 -5 -18z"/>
<path d="M0 1433 c0 -32 4 -43 15 -43 12 0 14 7 9 28 -13 52 -23 59 -24 15z"/>
<path d="M1 1344 c0 -11 3 -14 6 -6 3 7 2 16 -1 19 -3 4 -6 -2 -5 -13z"/>
<path d="M72 1340 c0 -14 2 -19 5 -12 2 6 2 18 0 25 -3 6 -5 1 -5 -13z"/>
<path d="M1 1308 c-1 -24 18 -72 26 -64 3 3 1 16 -5 29 -6 12 -13 29 -15 37
-4 12 -6 12 -6 -2z"/>
<path d="M111 1184 c0 -11 3 -14 6 -6 3 7 2 16 -1 19 -3 4 -6 -2 -5 -13z"/>
<path d="M36 1174 c-3 -9 -4 -19 -1 -22 3 -3 5 1 6 9 0 8 4 6 9 -6 6 -13 9
-15 9 -5 0 8 -3 21 -8 28 -6 11 -10 10 -15 -4z"/>
<path d="M70 1085 c-7 -9 -11 -17 -9 -20 3 -2 10 5 17 15 14 24 10 26 -8 5z"/>
<path d="M2575 389 c-11 -16 -1 -19 13 -3 7 8 8 14 3 14 -5 0 -13 -5 -16 -11z"/>
<path d="M2605 380 c-3 -6 1 -7 9 -4 18 7 21 14 7 14 -6 0 -13 -4 -16 -10z"/>
<path d="M2452 276 c-18 -6 -30 -14 -27 -18 4 -3 18 0 32 7 14 7 31 11 38 9 7
-3 16 -1 20 5 8 14 -21 13 -63 -3z"/>
<path d="M2517 265 c-11 -7 -25 -11 -33 -8 -8 3 -14 0 -14 -6 0 -6 5 -11 10
-11 13 0 70 29 70 35 0 9 -15 5 -33 -10z"/>
<path d="M2406 232 c-7 -12 12 -38 21 -29 4 5 1 12 -7 17 -12 8 -10 10 8 10
13 0 20 -4 17 -10 -3 -6 1 -7 9 -4 9 3 13 10 10 15 -7 11 -51 12 -58 1z"/>
</g>
</svg>
